<svg preserveAspectRatio="none" width="100%" height="100%" overflow="visible" style="display: block;" viewBox="0 0 129.093 101.839" fill="none" xmlns="http://www.w3.org/2000/svg">
<g id="Vector">
<path d="M68.618 42.7734C69.2186 44.2173 69.9633 46.076 70.7218 48.0659L76.5812 45.3589L77.8365 48.0835L71.7694 50.8858C72.6112 53.2249 73.3865 55.5664 73.8864 57.4966L70.9867 58.2495C70.5292 56.483 69.8202 54.3281 69.0394 52.147L63.0615 54.9111L61.8062 52.1865L67.9962 49.3257C66.9569 46.5916 65.9242 44.0726 65.2633 42.5347L68.0167 41.3482L68.618 42.7734Z" fill="#222A3A"/>
<path fill-rule="evenodd" clip-rule="evenodd" d="M88.6893 2.97949C80.9266 3.90496 53.2987 9.69413 27.8176 15.8848C23.0055 17.0539 18.8338 18.1254 15.3308 19.2788C11.818 20.4354 9.07219 21.6458 7.06766 23.0523C5.08937 24.4403 3.88755 25.9798 3.34429 27.8174C2.79314 29.6818 2.86177 32.0484 3.80514 35.1826C5.75555 41.6621 11.4298 54.6616 17.1405 66.876C22.8549 79.0982 28.4925 90.2927 30.3267 93.1787C32.0748 95.9291 34.0676 97.8124 37.7266 98.5254C41.5477 99.2699 47.3181 98.7652 56.661 96.1568C66.0486 93.5358 80.503 89.724 93.3183 86.2061C99.7394 84.4434 105.761 82.7524 110.567 81.3106C115.426 79.8531 118.911 78.6888 120.361 77.9839C123.25 76.5788 124.94 74.7293 125.666 72.4937C126.405 70.2172 126.228 67.2843 124.851 63.5772C123.419 59.7249 120.229 50.3347 116.76 40.815C114.742 35.2767 112.618 29.6617 110.637 24.895C109.337 24.2927 108.042 23.6394 106.785 22.9409C102.006 20.2839 97.4738 16.8108 95.586 12.8189C94.6799 10.9027 94.362 9.01616 95.0725 7.53516C95.8673 5.87851 97.5816 5.39236 99.1952 5.62207C102.307 6.06511 106.208 9.11961 109.211 14.6484C110.344 16.7338 111.612 19.4949 112.943 22.645C116.132 24.0492 119.282 25.1134 121.819 25.7183L121.124 28.6362C119.171 28.1706 116.907 27.4591 114.544 26.5488C116.217 30.7222 117.943 35.3076 119.575 39.7866C123.112 49.494 126.199 58.6038 127.658 62.5298C129.171 66.6003 129.538 70.271 128.516 73.4209C127.48 76.6113 125.103 79.0124 121.67 80.6821C119.958 81.5148 116.216 82.7468 111.428 84.1831C106.586 85.6353 100.537 87.3362 94.1098 89.1006C81.2276 92.6369 66.8674 96.4224 57.4671 99.0469C48.0227 101.684 41.6887 102.355 37.1546 101.471C32.4588 100.556 29.8442 98.0085 27.7986 94.7901C25.839 91.7068 20.1175 80.3177 14.4281 68.1489C8.7352 55.9727 2.96031 42.7718 0.936162 36.0469C-0.107364 32.5796 -0.301973 29.5813 0.470923 26.9663C1.25201 24.3243 2.96188 22.2678 5.34716 20.5942C7.70626 18.9391 10.7765 17.621 14.3944 16.4297C18.0222 15.2352 22.2975 14.1392 27.111 12.9697C52.5646 6.78577 80.3656 0.950085 88.3353 0L88.6893 2.97949ZM98.7739 8.59278C97.956 8.47635 97.8113 8.75498 97.7732 8.83447C97.6508 9.09001 97.5259 9.9113 98.294 11.5356C99.7557 14.6262 103.557 17.7154 108.24 20.3189C108.423 20.4206 108.608 20.5194 108.793 20.6191C108.009 18.8814 107.266 17.3451 106.579 16.0811C103.777 10.9231 100.526 8.84261 98.7739 8.59278Z" fill="#222A3A"/>
<path d="M71.4257 22.0356C76.6516 20.3709 81.4236 21.6598 85.042 24.9302C92.1397 31.3458 94.6247 45.0846 89.1034 58.708C83.5037 72.524 72.7095 77.5006 63.0968 75.5552C53.569 73.6263 45.6298 64.9528 45.6298 52.4898C45.6298 36.3883 54.6822 25.4121 59.8972 21.479L61.6996 23.8755C57.0694 27.3676 48.6261 37.5215 48.6261 52.4898C48.6261 63.5767 55.6102 70.9795 63.6908 72.6153C71.6863 74.2334 81.1877 70.263 86.328 57.5801C91.5463 44.7044 88.8985 32.4599 83.0333 27.1582C80.1702 24.5704 76.5002 23.568 72.3343 24.895C68.084 26.2494 63.1538 30.0881 58.1079 37.5791L55.6237 35.9004C60.8694 28.1128 66.2842 23.6739 71.4257 22.0356Z" fill="#222A3A"/>
</g>
</svg>
