<svg preserveAspectRatio="none" width="100%" height="100%" overflow="visible" style="display: block;" viewBox="0 0 130.889 107.509" fill="none" xmlns="http://www.w3.org/2000/svg">
<path id="Vector" fill-rule="evenodd" clip-rule="evenodd" d="M72.7095 4.2495C91.8034 -0.677523 93.7327 -1.09499 98.1162 1.83836C103.778 5.62747 116.195 41.5941 127.518 64.3535C136.577 82.5606 125.44 86.7818 116.859 89.2236C105.044 92.5856 76.5899 100.302 56.451 105.763L55.0757 106.137C29.8291 112.983 24.1421 93.4537 11.0653 64.3535C3.08301 46.5904 -0.792909 36.7358 0.135083 30.167C0.58351 26.9935 2.28845 22.1128 14.7228 18.9375C20.9491 17.3475 54.7057 8.89518 72.7095 4.2495ZM80.5176 15.9038C68.8583 13.274 56.7037 23.1528 53.3699 37.9687C50.0361 52.7848 56.7856 66.9279 68.4448 69.5581C80.1041 72.1881 92.2587 62.3093 95.5925 47.4932C98.9263 32.677 92.1769 18.5338 80.5176 15.9038Z" fill="#CFCDDD" fill-opacity="0.4"/>
</svg>
