<svg preserveAspectRatio="none" width="100%" height="100%" overflow="visible" style="display: block;" viewBox="0 0 18 22" fill="none" xmlns="http://www.w3.org/2000/svg">
<g id="Vector">
<path d="M11 20C11 21.1046 10.1046 22 9 22C7.89543 22 7 21.1046 7 20C7 18.8954 7.89543 19.0001 9 19.0001C10.1046 19.0001 11 18.8954 11 20Z" fill="black" fill-opacity="0.6"/>
<path fill-rule="evenodd" clip-rule="evenodd" d="M9 0C9.55229 0 10 0.447715 10 1V2.07089C13.3923 2.55612 16 5.47353 16 9V16H17C17.5523 16 18 16.4477 18 17C18 17.5523 17.5523 18 17 18H1C0.447715 18 0 17.5523 0 17C0 16.4477 0.447715 16 1 16H2V9C2 5.47353 4.60771 2.55612 8 2.07089V1C8 0.447715 8.44772 0 9 0ZM4 16H14V9C14 6.23858 11.7614 4 9 4C6.23858 4 4 6.23858 4 9V16Z" fill="black" fill-opacity="0.6"/>
</g>
</svg>
