<svg preserveAspectRatio="none" width="100%" height="100%" overflow="visible" style="display: block;" viewBox="0 0 22 22" fill="none" xmlns="http://www.w3.org/2000/svg">
<g id="Vector">
<path d="M11 0C11.5523 0 12 0.447715 12 1V2C12 2.55228 11.5523 3 11 3C10.4477 3 10 2.55228 10 2V1C10 0.447715 10.4477 0 11 0Z" fill="black" fill-opacity="0.6"/>
<path fill-rule="evenodd" clip-rule="evenodd" d="M11 18C14.866 18 18 14.866 18 11C18 7.13401 14.866 4 11 4C7.13401 4 4 7.13401 4 11C4 14.866 7.13401 18 11 18ZM11 16C13.7614 16 16 13.7614 16 11C16 8.23858 13.7614 6 11 6C8.23858 6 6 8.23858 6 11C6 13.7614 8.23858 16 11 16Z" fill="black" fill-opacity="0.6"/>
<path d="M12 20C12 19.4477 11.5523 19 11 19C10.4477 19 10 19.4477 10 20V21C10 21.5523 10.4477 22 11 22C11.5523 22 12 21.5523 12 21V20Z" fill="black" fill-opacity="0.6"/>
<path d="M18.7782 3.22176C19.1687 3.61228 19.1687 4.24544 18.7782 4.63597L18.071 5.34308C17.6805 5.7336 17.0474 5.7336 16.6568 5.34308C16.2663 4.95255 16.2663 4.31939 16.6568 3.92886L17.3639 3.22176C17.7545 2.83123 18.3876 2.83123 18.7782 3.22176Z" fill="black" fill-opacity="0.6"/>
<path d="M5.34315 18.071C5.73368 17.6805 5.73368 17.0473 5.34315 16.6568C4.95263 16.2663 4.31946 16.2663 3.92894 16.6568L3.22183 17.3639C2.83131 17.7544 2.83131 18.3876 3.22183 18.7781C3.61236 19.1687 4.24552 19.1687 4.63605 18.7781L5.34315 18.071Z" fill="black" fill-opacity="0.6"/>
<path d="M18.7781 18.7782C18.3876 19.1687 17.7544 19.1687 17.3639 18.7782L16.6568 18.071C16.2663 17.6805 16.2663 17.0474 16.6568 16.6568C17.0473 16.2663 17.6805 16.2663 18.071 16.6568L18.7781 17.3639C19.1686 17.7545 19.1686 18.3876 18.7781 18.7782Z" fill="black" fill-opacity="0.6"/>
<path d="M3.92885 5.34309C4.31938 5.73362 4.95254 5.73362 5.34306 5.34309C5.73359 4.95257 5.73359 4.3194 5.34306 3.92888L4.63596 3.22177C4.24543 2.83125 3.61227 2.83125 3.22174 3.22177C2.83122 3.6123 2.83122 4.24546 3.22174 4.63599L3.92885 5.34309Z" fill="black" fill-opacity="0.6"/>
<path d="M22 11C22 11.5523 21.5523 12 21 12H20C19.4477 12 19 11.5523 19 11C19 10.4477 19.4477 10 20 10H21C21.5523 10 22 10.4477 22 11Z" fill="black" fill-opacity="0.6"/>
<path d="M2 12C2.55228 12 3 11.5523 3 11C3 10.4477 2.55228 10 2 10H1C0.447715 10 0 10.4477 0 11C0 11.5523 0.447715 12 1 12H2Z" fill="black" fill-opacity="0.6"/>
</g>
</svg>
