<svg preserveAspectRatio="none" width="100%" height="100%" overflow="visible" style="display: block;" viewBox="0 0 21.3955 20.8772" fill="none" xmlns="http://www.w3.org/2000/svg">
<path id="Vector" fill-rule="evenodd" clip-rule="evenodd" d="M6.75241 2.15143C6.08605 1.74421 5.23096 2.22378 5.23096 3.00471V5.45879L15.7507 7.65041L6.75241 2.15143ZM15.7507 13.2268L5.13402 15.4386H5.23096V17.8725C5.23096 18.6534 6.08605 19.133 6.75241 18.7258L15.7507 13.2268ZM3.23096 15.8351V17.8725C3.23096 20.2153 5.79624 21.654 7.79531 20.4323L19.9598 12.9984C21.874 11.8287 21.8741 9.04854 19.9598 7.87875L7.79531 0.444862C5.79625 -0.776786 3.23096 0.661918 3.23096 3.00471V5.04212L2.41226 4.87156C0.791712 4.53395 -0.514033 6.19874 0.199963 7.69218L1.51299 10.4386L0.199963 13.185C-0.514033 14.6784 0.79171 16.3432 2.41226 16.0056L3.23096 15.8351ZM19.3279 10.4386L2.00435 6.82952L3.31738 9.57593C3.5782 10.1215 3.5782 10.7557 3.31738 11.3013L2.00435 14.0477L19.3279 10.4386Z" fill="black" fill-opacity="0.6"/>
</svg>
