<svg preserveAspectRatio="none" width="100%" height="100%" overflow="visible" style="display: block;" viewBox="0 0 16 16" fill="none" xmlns="http://www.w3.org/2000/svg">
<g id="&#226;&#134;&#144; Master">
<g id="Edit">
<path id="Vector" fill-rule="evenodd" clip-rule="evenodd" d="M12.2329 2.82431C11.9725 2.56396 11.5504 2.56396 11.2901 2.82431L10.5286 3.58578L12.4142 5.47139L13.1757 4.70992C13.436 4.44957 13.436 4.02746 13.1757 3.76711L12.2329 2.82431ZM11.4714 6.4142L9.58579 4.52859L4.09576 10.0186C3.94287 10.1715 3.82946 10.3593 3.76529 10.5658L3.01286 12.9872L5.43422 12.2347C5.6407 12.1706 5.82847 12.0571 5.98136 11.9043L11.4714 6.4142ZM10.3472 1.88151C11.1283 1.10045 12.3946 1.10045 13.1757 1.8815L14.1185 2.8243C14.8995 3.60535 14.8995 4.87167 14.1185 5.65272L6.92417 12.8471C6.6184 13.1528 6.24285 13.3797 5.82989 13.508L3.40853 14.2604C2.38315 14.5791 1.42095 13.6169 1.73958 12.5915L2.49202 10.1701C2.62035 9.75717 2.84717 9.38162 3.15295 9.07584L10.3472 1.88151Z" fill="black"/>
</g>
</g>
</svg>
