<svg preserveAspectRatio="none" width="100%" height="100%" overflow="visible" style="display: block;" viewBox="0 0 16 16" fill="none" xmlns="http://www.w3.org/2000/svg">
<g id="&#226;&#134;&#144; Master">
<g id="Download">
<g id="Vector">
<path d="M8 2C7.63181 2 7.33333 2.29848 7.33333 2.66667V6.66667C7.33333 7.1208 7.41067 7.65227 7.51267 8.15572L7.41723 8.2515C7.39066 8.22107 7.36629 8.18792 7.34452 8.15204C7.01347 7.60646 6.59333 6.98702 6.17189 6.56243L5.80474 6.19528C5.54439 5.93493 5.12228 5.93493 4.86193 6.19528C4.60299 6.45421 4.60159 6.87315 4.85771 7.13383L7.52862 9.80474C7.7549 10.031 8.10336 10.0606 8.36162 9.89358C8.4005 9.86843 8.43734 9.83882 8.4714 9.80475L11.1381 7.13809C11.3984 6.87774 11.3984 6.45563 11.1381 6.19528C10.8784 5.93556 10.4577 5.93493 10.1972 6.19337L10.1953 6.19528L9.83826 6.55228C9.41344 6.9771 8.98925 7.60209 8.65557 8.15203C8.63379 8.18792 8.6094 8.22109 8.58281 8.25154L8.48733 8.15572C8.58933 7.65228 8.66667 7.1208 8.66667 6.66667V2.66667C8.66667 2.29848 8.36819 2 8 2Z" fill="black"/>
<path fill-rule="evenodd" clip-rule="evenodd" d="M13.3333 8.66667C13.7015 8.66667 14 8.96514 14 9.33333V11.3333C14 12.8061 12.8061 14 11.3333 14H4.66667C3.19391 14 2 12.8061 2 11.3333L2 9.33333C2 8.96514 2.29848 8.66667 2.66667 8.66667C3.03486 8.66667 3.33333 8.96514 3.33333 9.33333L3.33333 11.3333C3.33333 12.0697 3.93029 12.6667 4.66667 12.6667H11.3333C12.0697 12.6667 12.6667 12.0697 12.6667 11.3333V9.33333C12.6667 8.96514 12.9651 8.66667 13.3333 8.66667Z" fill="black"/>
</g>
</g>
</g>
</svg>
