<svg preserveAspectRatio="none" width="100%" height="100%" overflow="visible" style="display: block;" viewBox="0 0 16 16" fill="none" xmlns="http://www.w3.org/2000/svg">
<g id="&#226;&#134;&#144; Master">
<g id="Review : Excellent">
<g id="Vector">
<path fill-rule="evenodd" clip-rule="evenodd" d="M5.33333 7.33333C5.70152 7.33333 6 7.63181 6 8V10H8C8.36819 10 8.66667 10.2985 8.66667 10.6667C8.66667 11.0349 8.36819 11.3333 8 11.3333H6V13.3333C6 13.7015 5.70152 14 5.33333 14C4.96514 14 4.66667 13.7015 4.66667 13.3333V11.3333H2.66667C2.29848 11.3333 2 11.0349 2 10.6667C2 10.2985 2.29848 10 2.66667 10H4.66667V8C4.66667 7.63181 4.96514 7.33333 5.33333 7.33333Z" fill="black"/>
<path fill-rule="evenodd" clip-rule="evenodd" d="M10.6667 2C11.0349 2 11.3333 2.29848 11.3333 2.66667V4.66667H13.3333C13.7015 4.66667 14 4.96514 14 5.33333C14 5.70152 13.7015 6 13.3333 6H11.3333V8C11.3333 8.36819 11.0349 8.66667 10.6667 8.66667C10.2985 8.66667 10 8.36819 10 8V6H8C7.63181 6 7.33333 5.70152 7.33333 5.33333C7.33333 4.96514 7.63181 4.66667 8 4.66667H10V2.66667C10 2.29848 10.2985 2 10.6667 2Z" fill="black"/>
</g>
</g>
</g>
</svg>
