<svg preserveAspectRatio="none" width="100%" height="100%" overflow="visible" style="display: block;" viewBox="0 0 16 16" fill="none" xmlns="http://www.w3.org/2000/svg">
<g id="&#226;&#134;&#144; Master">
<g id="Review : Good">
<path id="Vector" fill-rule="evenodd" clip-rule="evenodd" d="M8 4.66667C8.36819 4.66667 8.66667 4.96514 8.66667 5.33333V7.33333H10.6667C11.0349 7.33333 11.3333 7.63181 11.3333 8C11.3333 8.36819 11.0349 8.66667 10.6667 8.66667H8.66667V10.6667C8.66667 11.0349 8.36819 11.3333 8 11.3333C7.63181 11.3333 7.33333 11.0349 7.33333 10.6667V8.66667H5.33333C4.96514 8.66667 4.66667 8.36819 4.66667 8C4.66667 7.63181 4.96514 7.33333 5.33333 7.33333H7.33333V5.33333C7.33333 4.96514 7.63181 4.66667 8 4.66667Z" fill="black"/>
</g>
</g>
</svg>
