<svg preserveAspectRatio="none" width="100%" height="100%" overflow="visible" style="display: block;" viewBox="0 0 40.3078 40.9636" fill="none" xmlns="http://www.w3.org/2000/svg">
<g id="Mask group">
<mask id="mask0_0_14" style="mask-type:alpha" maskUnits="userSpaceOnUse" x="1" y="0" width="38" height="41">
<path id="S" d="M25.5615 7.15426L23.7341 7.68473C22.7772 7.96232 21.5971 8.44732 20.1841 9.16074C18.8601 9.82917 17.3021 10.9395 15.5049 12.5349C13.6402 14.1902 12.6363 15.4576 12.2709 16.3512L12.2667 16.3627L12.2619 16.3735C12.0745 16.8068 12.036 17.1234 12.06 17.3493C12.0825 17.5607 12.1667 17.768 12.3643 17.9907C12.5595 18.2106 12.7406 18.3052 12.916 18.3445C13.1854 18.356 13.5654 18.3055 14.0801 18.1363C14.6844 17.8956 15.4039 17.5476 16.2437 17.0828C16.8931 16.6939 17.623 16.2367 18.4325 15.7078L19.2786 15.1487L19.2945 15.1372L19.311 15.1278C20.4556 14.4151 21.6494 13.7343 22.892 13.085C24.1974 12.4028 25.5201 11.9297 26.8585 11.678L26.8592 11.6774C28.1937 11.4091 29.5217 11.4345 30.8301 11.7552L31.0917 11.8233L31.369 11.9062C32.7456 12.351 33.9811 13.2424 35.0852 14.4862C36.4465 16.0197 37.2545 17.7009 37.382 19.5183C37.526 21.2052 37.2458 22.8741 36.5635 24.5098C35.8965 26.1084 34.9388 27.6317 33.7051 29.0803L33.7037 29.0802C32.5244 30.5073 31.2623 31.8195 29.9162 33.0145C28.6606 34.129 27.4554 35.0861 26.3001 35.8797L26.2965 35.8816C25.1863 36.639 24.151 37.2703 23.1924 37.7687C22.2558 38.2558 21.3962 38.6482 20.618 38.9389L20.5897 38.9497L20.56 38.959C19.8264 39.1912 19.1826 39.3696 18.6366 39.4886L17.9491 39.6379L12.926 33.9794L14.8722 33.5093C15.9632 33.2457 17.4014 32.7097 19.2067 31.8696C20.9319 31.0276 22.7467 29.7745 24.6498 28.0851C26.1394 26.7627 27.0938 25.5584 27.6028 24.4817C27.8399 23.966 27.898 23.5735 27.8695 23.2773C27.8422 22.9938 27.7276 22.7129 27.4648 22.4169C27.2304 22.1529 27.0358 22.0852 26.8464 22.0792L26.7995 22.0778L26.7534 22.073C26.4561 22.0403 26.0343 22.0929 25.4555 22.332L25.4278 22.3435L25.3989 22.3535C24.8107 22.5622 24.1182 22.9069 23.3168 23.4091L23.2989 23.4198L23.2817 23.4298C22.4518 23.9117 21.5426 24.4626 20.5547 25.0828L20.5425 25.091L20.5303 25.0979C19.3745 25.7849 18.1785 26.4511 16.9429 27.0967L16.9144 27.1117C15.6157 27.7477 14.2998 28.1941 12.969 28.4424C11.5886 28.6999 10.2203 28.6636 8.8764 28.329L8.85523 28.3243L8.83415 28.3182C7.39621 27.9044 6.11368 27.0011 4.97458 25.7179C3.77374 24.3652 3.03645 22.8635 2.85681 21.2228L2.85601 21.2131C2.7044 19.7113 2.91162 18.2095 3.45392 16.7204L3.56636 16.4234C4.16257 14.8455 5.09023 13.2964 6.32218 11.7742C7.52992 10.2389 8.93858 8.75816 10.5446 7.33247C12.6929 5.42544 14.5782 4.03218 16.1856 3.20899C17.7029 2.42321 18.982 1.88865 19.9569 1.71155L20.6226 1.59067L25.5615 7.15426Z" fill="black" stroke="black" stroke-width="2.40558"/>
</mask>
<g mask="url(#mask0_0_14)">
<g id="Group 2087324848">
<path id="Vector 1861" d="M29.0617 13.6757C31.5638 25.6485 -1.17232 36.8715 -16.3903 29.7241" stroke="url(#paint0_linear_0_14)" stroke-width="18.56"/>
<path id="Vector 1862" d="M40.8888 7.38612C34.6617 -8.14084 -8.26924 29.0514 22.1157 37.3665C30.1335 39.5606 38.6706 37.5302 46.535 33.8536C57.4707 28.7411 67.1057 20.4456 72.2349 15.8996" stroke="url(#paint1_linear_0_14)" stroke-width="18.56"/>
</g>
</g>
</g>
<defs>
<linearGradient id="paint0_linear_0_14" x1="-14.9511" y1="28.7994" x2="24.2735" y2="19.4912" gradientUnits="userSpaceOnUse">
<stop stop-color="#6764F8"/>
<stop offset="0.255208" stop-color="#7C46F8"/>
<stop offset="0.270833" stop-color="#7C46F8"/>
<stop offset="0.557292" stop-color="#1683EF"/>
<stop offset="0.743537" stop-color="#338EE8"/>
<stop offset="0.994792" stop-color="#54A2EF"/>
</linearGradient>
<linearGradient id="paint1_linear_0_14" x1="14.222" y1="12.2804" x2="43.9239" y2="36.4491" gradientUnits="userSpaceOnUse">
<stop stop-color="#9580EB"/>
<stop offset="0.171875" stop-color="#6FB3F7"/>
<stop offset="0.539175" stop-color="#4F9EED"/>
<stop offset="1" stop-color="#9580EB"/>
</linearGradient>
</defs>
</svg>
