<svg preserveAspectRatio="none" width="100%" height="100%" overflow="visible" style="display: block;" viewBox="0 0 74 32" fill="none" xmlns="http://www.w3.org/2000/svg">
<g id="Frame 2136139636">
<g id="&#226;&#134;&#144; Label">
<path d="M6.08 25.88C5.248 25.88 4.512 25.8053 3.872 25.656C3.232 25.528 2.656 25.368 2.144 25.176C1.65333 24.984 1.22667 24.7707 0.864 24.536C0.522667 24.3013 0.234667 24.088 0 23.896V20.792C0.277333 20.984 0.608 21.208 0.992 21.464C1.376 21.6987 1.81333 21.9227 2.304 22.136C2.79467 22.3493 3.328 22.5307 3.904 22.68C4.50133 22.808 5.12 22.872 5.76 22.872C6.976 22.872 7.936 22.5947 8.64 22.04C9.36533 21.4853 9.728 20.664 9.728 19.576C9.728 18.9147 9.57867 18.3813 9.28 17.976C9.00267 17.5493 8.62933 17.1973 8.16 16.92C7.712 16.6427 7.18933 16.408 6.592 16.216C5.99467 16.024 5.38667 15.8213 4.768 15.608C4.17067 15.416 3.584 15.1707 3.008 14.872C2.45333 14.5733 1.952 14.2 1.504 13.752C1.056 13.2827 0.693333 12.7067 0.416 12.024C0.16 11.32 0.0320001 10.4667 0.0320001 9.464C0.0320001 8.376 0.213333 7.42667 0.576 6.616C0.96 5.80533 1.472 5.13333 2.112 4.6C2.77333 4.06667 3.552 3.672 4.448 3.416C5.344 3.13867 6.32533 3 7.392 3C8.11733 3 8.75733 3.05333 9.312 3.16C9.86667 3.26667 10.3467 3.39467 10.752 3.544C11.1787 3.672 11.5307 3.82133 11.808 3.992C12.0853 4.16267 12.32 4.312 12.512 4.44V7.544C11.872 7.18133 11.1573 6.84 10.368 6.52C9.6 6.17867 8.64 6.008 7.488 6.008C6.208 6.008 5.26933 6.28533 4.672 6.84C4.07467 7.37333 3.776 8.14133 3.776 9.144C3.776 9.74133 3.89333 10.232 4.128 10.616C4.384 11 4.704 11.32 5.088 11.576C5.49333 11.832 5.96267 12.0453 6.496 12.216C7.02933 12.3867 7.584 12.5573 8.16 12.728C8.94933 12.9627 9.67467 13.24 10.336 13.56C11.0187 13.88 11.6053 14.296 12.096 14.808C12.5867 15.32 12.9707 15.9387 13.248 16.664C13.5253 17.3893 13.664 18.2533 13.664 19.256C13.664 20.536 13.44 21.6027 12.992 22.456C12.544 23.3093 11.9573 23.992 11.232 24.504C10.5067 24.9947 9.696 25.3467 8.8 25.56C7.904 25.7733 6.99733 25.88 6.08 25.88Z" fill="black" fill-opacity="0.9"/>
<path d="M20.0982 11.544C20.5889 10.7547 21.1969 10.1573 21.9223 9.752C22.6689 9.34667 23.4902 9.144 24.3862 9.144C25.2822 9.144 26.1036 9.32533 26.8503 9.688C27.5969 10.0507 28.2369 10.5947 28.7703 11.32C29.3036 12.024 29.7196 12.8987 30.0182 13.944C30.3169 14.968 30.4662 16.152 30.4662 17.496C30.4662 18.84 30.3062 20.0347 29.9862 21.08C29.6876 22.1253 29.2609 23.0107 28.7063 23.736C28.1729 24.44 27.5116 24.9733 26.7222 25.336C25.9542 25.6987 25.1116 25.88 24.1943 25.88C22.5089 25.88 21.1756 25.144 20.1943 23.672V30.2H16.3862V9.464H19.9062L20.0982 11.544ZM23.2342 22.872C24.3436 22.872 25.1649 22.4453 25.6982 21.592C26.2529 20.7387 26.5303 19.3733 26.5303 17.496C26.5303 15.6187 26.2743 14.264 25.7623 13.432C25.2503 12.5787 24.4716 12.152 23.4263 12.152C22.3596 12.152 21.5596 12.5573 21.0263 13.368C20.4929 14.1787 20.2156 15.48 20.1943 17.272V17.528C20.1943 19.4053 20.4396 20.7707 20.9303 21.624C21.4423 22.456 22.2102 22.872 23.2342 22.872Z" fill="black" fill-opacity="0.9"/>
<path d="M41.2352 18.232H40.6912C39.0486 18.232 37.8752 18.424 37.1712 18.808C36.4672 19.1707 36.1152 19.8107 36.1152 20.728C36.1152 21.4107 36.3072 21.9653 36.6912 22.392C37.0966 22.7973 37.7046 23 38.5153 23C39.1979 23 39.7633 22.8827 40.2113 22.648C40.6593 22.392 41.0006 22.0827 41.2352 21.72V18.232ZM45.0433 21.624C45.0433 22.9467 45.1072 24.2587 45.2352 25.56H41.5233C41.4593 25.3893 41.3952 25.1867 41.3312 24.952C41.2886 24.7173 41.2566 24.4933 41.2352 24.28H41.0752C40.7126 24.664 40.2433 25.016 39.6673 25.336C39.0913 25.6347 38.2486 25.784 37.1393 25.784C35.6673 25.784 34.4726 25.3467 33.5552 24.472C32.6592 23.5973 32.2113 22.3387 32.2113 20.696C32.2113 19.0533 32.8832 17.784 34.2272 16.888C35.5712 15.9707 37.7046 15.512 40.6273 15.512H41.2352V14.616C41.2352 13.7413 41.0219 13.1333 40.5952 12.792C40.1686 12.4293 39.4966 12.248 38.5793 12.248C38.0886 12.248 37.5872 12.3013 37.0752 12.408C36.5632 12.4933 36.0726 12.6107 35.6032 12.76C35.1552 12.9093 34.7286 13.08 34.3232 13.272C33.9392 13.464 33.6193 13.656 33.3633 13.848V10.68C33.9393 10.3387 34.7073 10.008 35.6673 9.688C36.6273 9.368 37.7472 9.208 39.0272 9.208C41.0539 9.208 42.5579 9.61333 43.5392 10.424C44.5419 11.2347 45.0433 12.6213 45.0433 14.584V21.624Z" fill="black" fill-opacity="0.9"/>
<path d="M55.017 25.88C52.457 25.88 50.5583 25.1653 49.321 23.736C48.0837 22.3067 47.465 20.2373 47.465 17.528C47.465 16.312 47.6143 15.192 47.913 14.168C48.233 13.1227 48.7023 12.2373 49.321 11.512C49.961 10.7653 50.7397 10.1893 51.657 9.784C52.5743 9.35733 53.641 9.144 54.857 9.144C55.817 9.144 56.6383 9.21867 57.321 9.368C58.0037 9.496 58.5477 9.67733 58.953 9.912V13.144C58.569 12.9093 58.0463 12.6853 57.385 12.472C56.7237 12.2587 56.0197 12.152 55.273 12.152C54.0143 12.152 53.0543 12.6 52.393 13.496C51.7317 14.3707 51.401 15.6827 51.401 17.432C51.401 19.096 51.6997 20.4187 52.297 21.4C52.8943 22.3813 53.8757 22.872 55.241 22.872C56.0517 22.872 56.745 22.776 57.321 22.584C57.9183 22.392 58.4623 22.1253 58.953 21.784V24.888C58.0357 25.5493 56.7237 25.88 55.017 25.88Z" fill="black" fill-opacity="0.9"/>
<path d="M64.8073 18.872C64.8713 20.216 65.2019 21.2187 65.7992 21.88C66.3966 22.5413 67.3993 22.872 68.8073 22.872C69.7459 22.872 70.6632 22.7227 71.5592 22.424C72.4766 22.1253 73.2339 21.7733 73.8313 21.368V24.472C73.2766 24.856 72.5513 25.1867 71.6553 25.464C70.7593 25.7413 69.7033 25.88 68.4873 25.88C66.0339 25.88 64.1459 25.1973 62.8232 23.832C61.5219 22.4667 60.8713 20.376 60.8713 17.56C60.8713 16.344 61.0099 15.224 61.2873 14.2C61.5646 13.176 61.9806 12.2907 62.5353 11.544C63.1113 10.776 63.8259 10.1893 64.6793 9.784C65.5539 9.35733 66.5673 9.144 67.7193 9.144C68.6793 9.144 69.5432 9.28267 70.3112 9.56C71.0792 9.83733 71.7299 10.2853 72.2633 10.904C72.8179 11.5227 73.2446 12.3227 73.5433 13.304C73.8419 14.264 73.9912 15.448 73.9912 16.856V18.872H64.8073ZM67.6553 12.152C66.7379 12.152 66.0446 12.4827 65.5752 13.144C65.1059 13.8053 64.8499 14.776 64.8073 16.056H70.1192V15.736C70.1192 15.224 70.0766 14.7547 69.9912 14.328C69.9272 13.88 69.7992 13.496 69.6072 13.176C69.4152 12.856 69.1592 12.6107 68.8392 12.44C68.5192 12.248 68.1246 12.152 67.6553 12.152Z" fill="black" fill-opacity="0.9"/>
</g>
</g>
</svg>
