<svg preserveAspectRatio="none" width="100%" height="100%" overflow="visible" style="display: block;" viewBox="0 0 20 20" fill="none" xmlns="http://www.w3.org/2000/svg">
<path id="Vector" fill-rule="evenodd" clip-rule="evenodd" d="M5 4C5 1.79086 6.79086 0 9 0H11C13.2091 0 15 1.79086 15 4H19C19.5523 4 20 4.44772 20 5C20 5.55228 19.5523 6 19 6H18V16C18 18.2091 16.2091 20 14 20H6C3.79086 20 2 18.2091 2 16V6H1C0.447715 6 0 5.55228 0 5C0 4.44772 0.447715 4 1 4H5ZM4 6V16C4 17.1046 4.89543 18 6 18H14C15.1046 18 16 17.1046 16 16V6H4ZM13 4C13 2.89543 12.1046 2 11 2H9C7.89543 2 7 2.89543 7 4H13Z" fill="black" fill-opacity="0.6"/>
</svg>
